<svg width="100" height="100" viewBox="0 0 100 100" fill="none" xmlns="http://www.w3.org/2000/svg">
<rect width="100" height="100" rx="15" fill="#171717"/>
<path d="M14.5 30L85.5 30" stroke="#E7E5E4" stroke-width="2" stroke-linecap="round"/>
<path d="M14.5 40L85.5 40" stroke="#E7E5E4" stroke-width="2" stroke-linecap="round"/>
<path d="M14.5 50L85.5 50" stroke="#E7E5E4" stroke-width="2" stroke-linecap="round"/>
<path d="M14.5 60L85.5 60" stroke="#E7E5E4" stroke-width="2" stroke-linecap="round"/>
<path d="M14.5 70L85.5 70" stroke="#E7E5E4" stroke-width="2" stroke-linecap="round"/>
<circle cx="18.5" cy="30" r="3" fill="#E7E5E4"/>
<circle cx="25.5" cy="30" r="3" fill="#E7E5E4"/>
<circle cx="32.5" cy="30" r="3" fill="#E7E5E4"/>
<circle cx="39.5" cy="30" r="3" fill="#E7E5E4"/>
<circle cx="46.5" cy="30" r="3" fill="#E7E5E4"/>
<circle cx="53.5" cy="30" r="3" fill="#E7E5E4"/>
<circle cx="60.5" cy="30" r="3" fill="#E7E5E4"/>
<circle cx="67.5" cy="30" r="3" fill="#E7E5E4"/>
<circle cx="74.5" cy="30" r="3" fill="#E7E5E4"/>
<circle cx="81.5" cy="30" r="3" fill="#E7E5E4"/>
<circle cx="18.5" cy="40" r="3" fill="#E7E5E4"/>
<circle cx="25.5" cy="40" r="3" fill="#E7E5E4"/>
<circle cx="32.5" cy="40" r="3" fill="#E7E5E4"/>
<circle cx="39.5" cy="40" r="3" fill="#E7E5E4"/>
<circle cx="46.5" cy="40" r="3" fill="#E7E5E4"/>
<circle cx="53.5" cy="40" r="3" fill="#E7E5E4"/>
<circle cx="60.5" cy="40" r="3" fill="#E7E5E4"/>
<circle cx="67.5" cy="40" r="3" fill="#E7E5E4"/>
<circle cx="74.5" cy="40" r="3" fill="#E7E5E4"/>
<circle cx="81.5" cy="40" r="3" fill="#E7E5E4"/>
<circle cx="18.5" cy="50" r="3" fill="#E7E5E4"/>
<circle cx="25.5" cy="50" r="3" fill="#E7E5E4"/>
<circle cx="32.5" cy="50" r="3" fill="#E7E5E4"/>
<circle cx="39.5" cy="50" r="3" fill="#E7E5E4"/>
<circle cx="46.5" cy="50" r="3" fill="#E7E5E4"/>
<circle cx="53.5" cy="50" r="3" fill="#E7E5E4"/>
<circle cx="60.5" cy="50" r="3" fill="#E7E5E4"/>
<circle cx="67.5" cy="50" r="3" fill="#E7E5E4"/>
<circle cx="74.5" cy="50" r="3" fill="#E7E5E4"/>
<circle cx="81.5" cy="50" r="3" fill="#E7E5E4"/>
<circle cx="18.5" cy="60" r="3" fill="#E7E5E4"/>
<circle cx="25.5" cy="60" r="3" fill="#E7E5E4"/>
<circle cx="32.5" cy="60" r="3" fill="#E7E5E4"/>
<circle cx="39.5" cy="60" r="3" fill="#E7E5E4"/>
<circle cx="46.5" cy="60" r="3" fill="#E7E5E4"/>
<circle cx="53.5" cy="60" r="3" fill="#E7E5E4"/>
<circle cx="60.5" cy="60" r="3" fill="#E7E5E4"/>
<circle cx="67.5" cy="60" r="3" fill="#E7E5E4"/>
<circle cx="74.5" cy="60" r="3" fill="#E7E5E4"/>
<circle cx="81.5" cy="60" r="3" fill="#E7E5E4"/>
<circle cx="18.5" cy="70" r="3" fill="#E7E5E4"/>
<circle cx="25.5" cy="70" r="3" fill="#E7E5E4"/>
<circle cx="32.5" cy="70" r="3" fill="#E7E5E4"/>
<circle cx="39.5" cy="70" r="3" fill="#E7E5E4"/>
<circle cx="46.5" cy="70" r="3" fill="#E7E5E4"/>
<circle cx="53.5" cy="70" r="3" fill="#E7E5E4"/>
<circle cx="60.5" cy="70" r="3" fill="#E7E5E4"/>
<circle cx="67.5" cy="70" r="3" fill="#E7E5E4"/>
<circle cx="74.5" cy="70" r="3" fill="#E7E5E4"/>
<circle cx="81.5" cy="70" r="3" fill="#E7E5E4"/>
</svg>
