<svg width="100" height="100" viewBox="0 0 100 100" fill="none" xmlns="http://www.w3.org/2000/svg">
<rect width="100" height="100" rx="15" fill="#E7E5E4"/>
<g clip-path="url(#clip0_15_59)">
<path d="M34 18C29.5875 18 26 21.5875 26 26V74C26 78.4125 29.5875 82 34 82H66C70.4125 82 74 78.4125 74 74V26C74 21.5875 70.4125 18 66 18H34ZM38 26H62C64.2125 26 66 27.7875 66 30V34C66 36.2125 64.2125 38 62 38H38C35.7875 38 34 36.2125 34 34V30C34 27.7875 35.7875 26 38 26ZM42 46C42 47.0609 41.5786 48.0783 40.8284 48.8284C40.0783 49.5786 39.0609 50 38 50C36.9391 50 35.9217 49.5786 35.1716 48.8284C34.4214 48.0783 34 47.0609 34 46C34 44.9391 34.4214 43.9217 35.1716 43.1716C35.9217 42.4214 36.9391 42 38 42C39.0609 42 40.0783 42.4214 40.8284 43.1716C41.5786 43.9217 42 44.9391 42 46ZM38 62C36.9391 62 35.9217 61.5786 35.1716 60.8284C34.4214 60.0783 34 59.0609 34 58C34 56.9391 34.4214 55.9217 35.1716 55.1716C35.9217 54.4214 36.9391 54 38 54C39.0609 54 40.0783 54.4214 40.8284 55.1716C41.5786 55.9217 42 56.9391 42 58C42 59.0609 41.5786 60.0783 40.8284 60.8284C40.0783 61.5786 39.0609 62 38 62ZM34 70C34 67.7875 35.7875 66 38 66H50C52.2125 66 54 67.7875 54 70C54 72.2125 52.2125 74 50 74H38C35.7875 74 34 72.2125 34 70ZM50 50C48.9391 50 47.9217 49.5786 47.1716 48.8284C46.4214 48.0783 46 47.0609 46 46C46 44.9391 46.4214 43.9217 47.1716 43.1716C47.9217 42.4214 48.9391 42 50 42C51.0609 42 52.0783 42.4214 52.8284 43.1716C53.5786 43.9217 54 44.9391 54 46C54 47.0609 53.5786 48.0783 52.8284 48.8284C52.0783 49.5786 51.0609 50 50 50ZM54 58C54 59.0609 53.5786 60.0783 52.8284 60.8284C52.0783 61.5786 51.0609 62 50 62C48.9391 62 47.9217 61.5786 47.1716 60.8284C46.4214 60.0783 46 59.0609 46 58C46 56.9391 46.4214 55.9217 47.1716 55.1716C47.9217 54.4214 48.9391 54 50 54C51.0609 54 52.0783 54.4214 52.8284 55.1716C53.5786 55.9217 54 56.9391 54 58ZM62 50C60.9391 50 59.9217 49.5786 59.1716 48.8284C58.4214 48.0783 58 47.0609 58 46C58 44.9391 58.4214 43.9217 59.1716 43.1716C59.9217 42.4214 60.9391 42 62 42C63.0609 42 64.0783 42.4214 64.8284 43.1716C65.5786 43.9217 66 44.9391 66 46C66 47.0609 65.5786 48.0783 64.8284 48.8284C64.0783 49.5786 63.0609 50 62 50ZM66 58C66 59.0609 65.5786 60.0783 64.8284 60.8284C64.0783 61.5786 63.0609 62 62 62C60.9391 62 59.9217 61.5786 59.1716 60.8284C58.4214 60.0783 58 59.0609 58 58C58 56.9391 58.4214 55.9217 59.1716 55.1716C59.9217 54.4214 60.9391 54 62 54C63.0609 54 64.0783 54.4214 64.8284 55.1716C65.5786 55.9217 66 56.9391 66 58ZM62 74C60.9391 74 59.9217 73.5786 59.1716 72.8284C58.4214 72.0783 58 71.0609 58 70C58 68.9391 58.4214 67.9217 59.1716 67.1716C59.9217 66.4214 60.9391 66 62 66C63.0609 66 64.0783 66.4214 64.8284 67.1716C65.5786 67.9217 66 68.9391 66 70C66 71.0609 65.5786 72.0783 64.8284 72.8284C64.0783 73.5786 63.0609 74 62 74Z" fill="#171717"/>
</g>
<defs>
<clipPath id="clip0_15_59">
<rect width="48" height="64" fill="white" transform="translate(26 18)"/>
</clipPath>
</defs>
</svg>
