<svg width="100" height="100" viewBox="0 0 100 100" fill="none" xmlns="http://www.w3.org/2000/svg">
<rect width="100" height="100" rx="15" fill="#E7E5E4"/>
<path d="M38.55 34.4C40.75 34.4 42.55 34.7333 43.95 35.4C45.3833 36.0333 46.65 36.7833 47.75 37.65C48.4167 38.15 48.9167 38.2167 49.25 37.85C49.6167 37.45 49.8667 36.5333 50 35.1H51.15C51.0833 36.3333 51.0333 37.8333 51 39.6C50.9667 41.3667 50.95 43.7 50.95 46.6H49.8C49.5667 45.1667 49.35 44.0333 49.15 43.2C48.95 42.3333 48.7 41.6 48.4 41C48.1333 40.4 47.7667 39.8 47.3 39.2C46.2667 37.8333 44.9667 36.85 43.4 36.25C41.8333 35.6167 40.1833 35.3 38.45 35.3C36.8167 35.3 35.3333 35.7167 34 36.55C32.7 37.35 31.5667 38.5167 30.6 40.05C29.6667 41.5833 28.9333 43.4333 28.4 45.6C27.9 47.7667 27.65 50.2 27.65 52.9C27.65 55.7 27.9333 58.1833 28.5 60.35C29.0667 62.4833 29.85 64.2833 30.85 65.75C31.8833 67.2167 33.0833 68.3333 34.45 69.1C35.85 69.8333 37.35 70.2 38.95 70.2C40.45 70.2 42.0167 69.9 43.65 69.3C45.2833 68.7 46.5667 67.7333 47.5 66.4C48.2333 65.4333 48.7333 64.3833 49 63.25C49.3 62.1167 49.5667 60.5333 49.8 58.5H50.95C50.95 61.5333 50.9667 63.9833 51 65.85C51.0333 67.6833 51.0833 69.2333 51.15 70.5H50C49.8667 69.0667 49.6333 68.1667 49.3 67.8C49 67.4333 48.4833 67.4833 47.75 67.95C46.5167 68.8167 45.2 69.5833 43.8 70.25C42.4333 70.8833 40.6667 71.2 38.5 71.2C35.3333 71.2 32.55 70.4833 30.15 69.05C27.7833 67.6167 25.9333 65.55 24.6 62.85C23.3 60.15 22.65 56.9 22.65 53.1C22.65 49.3667 23.3333 46.1 24.7 43.3C26.0667 40.5 27.9333 38.3167 30.3 36.75C32.7 35.1833 35.45 34.4 38.55 34.4ZM62.9738 70.85C61.6072 70.85 60.4238 70.6 59.4238 70.1C58.4238 69.5667 57.6572 68.8333 57.1238 67.9C56.6238 66.9667 56.3738 65.8833 56.3738 64.65C56.3738 63.1833 56.7072 61.9833 57.3738 61.05C58.0738 60.1167 58.9572 59.3667 60.0238 58.8C61.0905 58.2333 62.2072 57.7667 63.3738 57.4C64.5738 57 65.7072 56.6333 66.7738 56.3C67.8405 55.9333 68.7072 55.5167 69.3738 55.05C70.0738 54.5833 70.4238 53.9667 70.4238 53.2V50.1C70.4238 48.7 70.2072 47.6333 69.7738 46.9C69.3738 46.1667 68.8238 45.6833 68.1238 45.45C67.4238 45.1833 66.6405 45.05 65.7738 45.05C64.9405 45.05 64.0405 45.1667 63.0738 45.4C62.1405 45.6333 61.3905 46.1167 60.8238 46.85C61.4572 46.9833 62.0072 47.3167 62.4738 47.85C62.9405 48.3833 63.1738 49.0667 63.1738 49.9C63.1738 50.7333 62.9072 51.4 62.3738 51.9C61.8405 52.3667 61.1572 52.6 60.3238 52.6C59.3572 52.6 58.6405 52.3 58.1738 51.7C57.7405 51.0667 57.5238 50.3667 57.5238 49.6C57.5238 48.7333 57.7405 48.0333 58.1738 47.5C58.6072 46.9667 59.1572 46.4667 59.8238 46C60.5905 45.4667 61.5738 45.0167 62.7738 44.65C64.0072 44.25 65.3905 44.05 66.9238 44.05C68.2905 44.05 69.4572 44.2167 70.4238 44.55C71.3905 44.85 72.1905 45.3 72.8238 45.9C73.6905 46.7 74.2572 47.6833 74.5238 48.85C74.7905 49.9833 74.9238 51.35 74.9238 52.95V66.85C74.9238 67.6833 75.0405 68.2833 75.2738 68.65C75.5405 69.0167 75.9405 69.2 76.4738 69.2C76.8405 69.2 77.1905 69.1167 77.5238 68.95C77.8572 68.7833 78.2572 68.5167 78.7238 68.15L79.2738 69C78.5738 69.5333 77.9072 69.9833 77.2738 70.35C76.6405 70.6833 75.7905 70.85 74.7238 70.85C73.7572 70.85 72.9572 70.6833 72.3238 70.35C71.6905 70.0167 71.2072 69.5333 70.8738 68.9C70.5738 68.2333 70.4238 67.4 70.4238 66.4C69.5238 67.9 68.4405 69.0167 67.1738 69.75C65.9405 70.4833 64.5405 70.85 62.9738 70.85ZM64.7738 68.85C65.8738 68.85 66.8905 68.5333 67.8238 67.9C68.7905 67.2667 69.6572 66.3167 70.4238 65.05V55.25C70.0238 55.8167 69.4405 56.3 68.6738 56.7C67.9072 57.0667 67.0738 57.45 66.1738 57.85C65.2738 58.2167 64.4072 58.6667 63.5738 59.2C62.7738 59.7 62.1072 60.3667 61.5738 61.2C61.0405 62.0333 60.7738 63.1167 60.7738 64.45C60.7738 65.7833 61.1238 66.85 61.8238 67.65C62.5572 68.45 63.5405 68.85 64.7738 68.85Z" fill="#171717"/>
</svg>
