<svg width="100" height="100" viewBox="0 0 100 100" fill="none" xmlns="http://www.w3.org/2000/svg">
<rect width="100" height="100" rx="15" fill="#171717"/>
<g clip-path="url(#clip0_59_186)">
<path d="M55 10C57.7656 10 60 12.2344 60 15V16.5312C60 25.0625 55.6406 32.875 48.6719 37.4062L48.7031 37.4531L57.5781 50H71.25C73.6094 50 75.8281 51.1094 77.25 53L84 62C85.6562 64.2031 85.2031 67.3438 83 69C80.7969 70.6563 77.6562 70.2031 76 68L70 60H55H54.7812L69.2031 82.2813C70.7031 84.5938 70.0469 87.6875 67.7187 89.2031C65.3906 90.7187 62.3125 90.0469 60.7969 87.7187L35.7031 48.9375C35.25 50.375 35 51.9063 35 53.4688V65C35 67.7656 32.7656 70 30 70C27.2344 70 25 67.7656 25 65V53.4688C25 43.2969 31.1875 34.1406 40.6406 30.3594C46.2969 28.0938 50 22.625 50 16.5312V15C50 12.2344 52.2344 10 55 10ZM27.5 15C29.4891 15 31.3968 15.7902 32.8033 17.1967C34.2098 18.6032 35 20.5109 35 22.5C35 24.4891 34.2098 26.3968 32.8033 27.8033C31.3968 29.2098 29.4891 30 27.5 30C25.5109 30 23.6032 29.2098 22.1967 27.8033C20.7902 26.3968 20 24.4891 20 22.5C20 20.5109 20.7902 18.6032 22.1967 17.1967C23.6032 15.7902 25.5109 15 27.5 15Z" fill="#E7E5E4"/>
</g>
<defs>
<clipPath id="clip0_59_186">
<rect width="80" height="80" fill="white" transform="translate(10 10)"/>
</clipPath>
</defs>
</svg>
