<svg width="100" height="100" viewBox="0 0 100 100" fill="none" xmlns="http://www.w3.org/2000/svg">
<rect width="100" height="100" rx="15" fill="#E7E5E4"/>
<path fill-rule="evenodd" clip-rule="evenodd" d="M19 85H65C76.0457 85 85 75.9457 85 64.9C85 53.8543 76.0457 44.8 65 44.8H59C56.7909 44.8 55 43.0091 55 40.8V35C55 23.9543 46.0457 15 35 15C23.9543 15 15 23.9543 15 35L15 81C15 83.2091 16.7909 85 19 85ZM64.9025 53.7025C58.7169 53.7025 53.7025 58.7169 53.7025 64.9025C53.7025 71.0881 58.7169 76.1025 64.9025 76.1025C71.0881 76.1025 76.1025 71.0881 76.1025 64.9025C76.1025 58.7169 71.0881 53.7025 64.9025 53.7025ZM24.5025 64.9025C24.5025 59.1588 29.1588 54.5025 34.9025 54.5025C40.6463 54.5025 45.3025 59.1588 45.3025 64.9025C45.3025 70.6463 40.6463 75.3025 34.9025 75.3025C29.1588 75.3025 24.5025 70.6463 24.5025 64.9025ZM34.5025 23.3025C28.3169 23.3025 23.3025 28.3169 23.3025 34.5025C23.3025 40.6881 28.3169 45.7025 34.5025 45.7025C40.6881 45.7025 45.7025 40.6881 45.7025 34.5025C45.7025 28.3169 40.6881 23.3025 34.5025 23.3025Z" fill="#171717" stroke="#171717" stroke-width="5"/>
</svg>
