<svg width="100" height="100" viewBox="0 0 100 100" fill="none" xmlns="http://www.w3.org/2000/svg">
<rect width="100" height="100" rx="15" fill="#E7E5E4"/>
<path d="M26.1 35.1C26.8 35.1333 27.7167 35.1667 28.85 35.2C29.9833 35.2333 31.1 35.25 32.2 35.25C33.7667 35.25 35.2667 35.2333 36.7 35.2C38.1333 35.1667 39.15 35.15 39.75 35.15C43.7833 35.15 46.8 36.0667 48.8 37.9C50.8 39.7333 51.8 42.1 51.8 45C51.8 46.2 51.6 47.4667 51.2 48.8C50.8 50.1 50.1 51.3167 49.1 52.45C48.1333 53.55 46.8 54.45 45.1 55.15C43.4 55.85 41.25 56.2 38.65 56.2H33.85V55.2H38.15C40.5167 55.2 42.3167 54.75 43.55 53.85C44.8167 52.95 45.6667 51.7667 46.1 50.3C46.5667 48.8333 46.8 47.25 46.8 45.55C46.8 42.3833 46.1667 40.0167 44.9 38.45C43.6667 36.8833 41.5333 36.1 38.5 36.1C36.9667 36.1 35.9667 36.3833 35.5 36.95C35.0333 37.5167 34.8 38.6667 34.8 40.4V65.2C34.8 66.4 34.9167 67.3 35.15 67.9C35.4167 68.5 35.9167 68.9 36.65 69.1C37.3833 69.3 38.45 69.4333 39.85 69.5V70.5C38.9833 70.4333 37.8833 70.4 36.55 70.4C35.2167 70.3667 33.8667 70.35 32.5 70.35C31.2 70.35 29.9833 70.3667 28.85 70.4C27.7167 70.4 26.8 70.4333 26.1 70.5V69.5C27.2333 69.4333 28.0833 69.3 28.65 69.1C29.25 68.9 29.65 68.5 29.85 67.9C30.05 67.3 30.15 66.4 30.15 65.2V40.4C30.15 39.1667 30.05 38.2667 29.85 37.7C29.65 37.1 29.25 36.7 28.65 36.5C28.0833 36.2667 27.2333 36.1333 26.1 36.1V35.1ZM70.248 44.05C71.148 44.05 71.9314 44.2333 72.598 44.6C73.298 44.9667 73.8314 45.45 74.198 46.05C74.598 46.6167 74.798 47.2667 74.798 48C74.798 48.8333 74.5314 49.5667 73.998 50.2C73.498 50.8333 72.8147 51.15 71.948 51.15C71.248 51.15 70.6314 50.9333 70.098 50.5C69.5647 50.0333 69.298 49.3833 69.298 48.55C69.298 47.9167 69.4647 47.3833 69.798 46.95C70.1647 46.4833 70.5647 46.1167 70.998 45.85C70.7647 45.5167 70.4147 45.35 69.948 45.35C68.9147 45.35 67.9647 45.6667 67.098 46.3C66.2314 46.9 65.498 47.6833 64.898 48.65C64.298 49.6167 63.8314 50.65 63.498 51.75C63.1647 52.8167 62.998 53.8167 62.998 54.75V65.35C62.998 66.9833 63.4647 68.0833 64.398 68.65C65.3647 69.1833 66.6647 69.45 68.298 69.45V70.5C67.5314 70.4667 66.448 70.4333 65.048 70.4C63.648 70.3333 62.1647 70.3 60.598 70.3C59.4647 70.3 58.3314 70.3333 57.198 70.4C56.098 70.4333 55.2647 70.4667 54.698 70.5V69.45C56.0647 69.45 57.0314 69.2 57.598 68.7C58.198 68.2 58.498 67.25 58.498 65.85V50.2C58.498 48.7 58.2314 47.6 57.698 46.9C57.1647 46.1667 56.1647 45.8 54.698 45.8V44.75C55.7647 44.85 56.798 44.9 57.798 44.9C58.7647 44.9 59.6814 44.85 60.548 44.75C61.448 44.6167 62.2647 44.4333 62.998 44.2V50.45C63.3647 49.4833 63.8814 48.5167 64.548 47.55C65.248 46.55 66.0814 45.7167 67.048 45.05C68.0147 44.3833 69.0814 44.05 70.248 44.05Z" fill="#171717"/>
</svg>
