<svg width="100" height="100" viewBox="0 0 100 100" fill="none" xmlns="http://www.w3.org/2000/svg">
<rect width="100" height="100" rx="15" fill="#171717"/>
<g clip-path="url(#clip0_20_6)">
<path d="M78.5313 28.5312C80.4844 26.5781 80.4844 23.4062 78.5313 21.4531C76.5781 19.5 73.4062 19.5 71.4531 21.4531L21.4531 71.4531C19.5 73.4062 19.5 76.5781 21.4531 78.5312C23.4062 80.4844 26.5781 80.4844 28.5312 78.5312L78.5313 28.5312ZM40 30C40 27.3478 38.9464 24.8043 37.0711 22.9289C35.1957 21.0536 32.6522 20 30 20C27.3478 20 24.8043 21.0536 22.9289 22.9289C21.0536 24.8043 20 27.3478 20 30C20 32.6522 21.0536 35.1957 22.9289 37.0711C24.8043 38.9464 27.3478 40 30 40C32.6522 40 35.1957 38.9464 37.0711 37.0711C38.9464 35.1957 40 32.6522 40 30ZM80 70C80 67.3478 78.9464 64.8043 77.0711 62.9289C75.1957 61.0536 72.6522 60 70 60C67.3478 60 64.8043 61.0536 62.9289 62.9289C61.0536 64.8043 60 67.3478 60 70C60 72.6522 61.0536 75.1957 62.9289 77.0711C64.8043 78.9464 67.3478 80 70 80C72.6522 80 75.1957 78.9464 77.0711 77.0711C78.9464 75.1957 80 72.6522 80 70Z" fill="#E7E5E4"/>
</g>
<defs>
<clipPath id="clip0_20_6">
<rect width="60" height="80" fill="white" transform="translate(20 10)"/>
</clipPath>
</defs>
</svg>
