<svg width="80" height="80" viewBox="0 0 80 80" fill="none" xmlns="http://www.w3.org/2000/svg">
<path d="M80 40C80 45.2529 78.9654 50.4543 76.9552 55.3073C74.945 60.1604 71.9986 64.5699 68.2843 68.2843C64.5699 71.9986 60.1604 74.945 55.3073 76.9552C50.4543 78.9654 45.2529 80 40 80C34.7471 80 29.5457 78.9654 24.6927 76.9552C19.8396 74.945 15.4301 71.9986 11.7157 68.2843C8.00138 64.5699 5.05501 60.1604 3.04482 55.3073C1.03463 50.4543 -4.59221e-07 45.2529 0 40L40 40H80Z" fill="#D3D3D3"/>
<path d="M3.49691e-06 40C3.95613e-06 34.7471 1.03463 29.5457 3.04482 24.6927C5.05501 19.8396 8.00139 15.4301 11.7157 11.7157C15.4301 8.00138 19.8396 5.055 24.6927 3.04481C29.5457 1.03463 34.7471 -3.95613e-06 40 -3.49691e-06C45.2529 -3.03769e-06 50.4543 1.03463 55.3073 3.04482C60.1604 5.05501 64.5699 8.00139 68.2843 11.7157C71.9986 15.4301 74.945 19.8396 76.9552 24.6927C78.9654 29.5457 80 34.7471 80 40L40 40L3.49691e-06 40Z" fill="#FFD236"/>
<circle cx="30.8604" cy="48.8604" r="4.29011" transform="rotate(30 30.8604 48.8604)" fill="#9C9C9C"/>
<circle cx="10.8301" cy="47.8301" r="5" transform="rotate(30 10.8301 47.8301)" fill="#9C9C9C"/>
<circle cx="21.8792" cy="64.8792" r="6.5" transform="rotate(30 21.8792 64.8792)" fill="#9C9C9C"/>
<circle cx="48.3433" cy="65.3433" r="10.5" transform="rotate(30 48.3433 65.3433)" fill="#9C9C9C"/>
<circle cx="64.8792" cy="49.8792" r="6.5" transform="rotate(30 64.8792 49.8792)" fill="#9C9C9C"/>
</svg>
