<svg width="260" height="260" viewBox="0 0 260 260" fill="none" xmlns="http://www.w3.org/2000/svg">
<path d="M37.5966 39.5774C37.3859 38.426 38.4262 37.3858 39.5775 37.5965L63.137 41.9086C64.4214 42.1437 64.8704 43.7258 63.9219 44.6743L44.6744 63.9218C43.7259 64.8703 42.1438 64.4213 41.9087 63.1369L37.5966 39.5774Z" fill="#F7B74B"/>
<path d="M128.6 0.722348C129.265 -0.240781 130.736 -0.240782 131.401 0.722347L145.011 20.4306C145.753 21.505 144.952 22.9412 143.61 22.9412L116.39 22.9412C115.049 22.9412 114.248 21.505 114.989 20.4306L128.6 0.722348Z" fill="#F7B74B"/>
<path d="M220.423 37.5966C221.574 37.3859 222.614 38.4261 222.404 39.5775L218.092 63.137C217.856 64.4214 216.274 64.8704 215.326 63.9219L196.078 44.6744C195.13 43.7259 195.579 42.1438 196.863 41.9087L220.423 37.5966Z" fill="#F7B74B"/>
<path d="M228 129.941C228 155.8 217.675 180.599 199.296 198.884C180.918 217.169 155.991 227.441 130 227.441C104.009 227.441 79.0821 217.169 60.7035 198.884C42.325 180.599 32 155.8 32 129.941L130 129.941L228 129.941Z" fill="#FBF3C1"/>
<path d="M32 129.941C32 104.082 42.325 79.283 60.7036 60.9982C79.0821 42.7134 104.009 32.4411 130 32.4411C155.991 32.4411 180.918 42.7134 199.296 60.9982C217.675 79.283 228 104.082 228 129.941L130 129.941L32 129.941Z" fill="#F7B74B"/>
<path d="M1.70208 130C0.722345 130 0.32701 128.737 1.13184 128.179L21.4279 114.09C22.091 113.63 22.9981 114.104 22.9981 114.911L22.9981 129C22.9981 129.552 22.5504 130 21.9981 130L1.70208 130Z" fill="#F7B74B"/>
<path d="M258.296 130C259.276 130 259.671 128.737 258.867 128.179L238.57 114.09C237.907 113.63 237 114.104 237 114.911L237 129C237 129.552 237.448 130 238 130L258.296 130Z" fill="#F7B74B"/>
</svg>
