<svg width="1920" height="1920" viewBox="0 0 1920 1920" fill="none" xmlns="http://www.w3.org/2000/svg">
<circle cx="275.429" cy="1241.26" r="2.5" fill="white"/>
<circle cx="107.229" cy="26.1981" r="2.5" fill="white"/>
<circle cx="753.675" cy="1098.13" r="2.5" fill="white"/>
<circle cx="1722.03" cy="1612.07" r="2.5" fill="white"/>
<circle cx="1852.9" cy="701.506" r="2.5" fill="white"/>
<circle cx="265.031" cy="783.51" r="2.5" fill="white"/>
<circle cx="719.38" cy="1268.02" r="2.5" fill="white"/>
<circle cx="391.515" cy="1042" r="2.5" fill="white"/>
<circle cx="1025.42" cy="1111.28" r="2.5" fill="white"/>
<circle cx="1461.54" cy="168.603" r="2.5" fill="white"/>
<circle cx="318.353" cy="810.416" r="2.5" fill="white"/>
<circle cx="176.29" cy="1125.86" r="2.5" fill="white"/>
<circle cx="698.348" cy="393.518" r="2.5" fill="white"/>
<circle cx="1019.95" cy="52.8315" r="2.5" fill="white"/>
<circle cx="432.225" cy="1299.04" r="2.5" fill="white"/>
<circle cx="1435.42" cy="1184.72" r="2.5" fill="white"/>
<circle cx="1460.07" cy="1316.98" r="2.5" fill="white"/>
<circle cx="1698.14" cy="670.803" r="2.5" fill="white"/>
<circle cx="144.054" cy="298.763" r="2.5" fill="white"/>
<circle cx="1653.21" cy="1527.06" r="2.5" fill="white"/>
<circle cx="429.376" cy="620.741" r="2.5" fill="white"/>
<circle cx="1656.13" cy="1047.2" r="2.5" fill="white"/>
<circle cx="1651.57" cy="442.845" r="2.5" fill="white"/>
<circle cx="585.498" cy="6.94379" r="2.5" fill="white"/>
<circle cx="69.6248" cy="848.723" r="2.5" fill="white"/>
<circle cx="880.597" cy="192.299" r="2.5" fill="white"/>
<circle cx="294.322" cy="1533.97" r="2.5" fill="white"/>
<circle cx="905.11" cy="1553.3" r="2.5" fill="white"/>
<circle cx="917.071" cy="161.371" r="2.5" fill="white"/>
<circle cx="1357.57" cy="1881.47" r="2.5" fill="white"/>
<circle cx="1367.83" cy="1554.8" r="2.5" fill="white"/>
<circle cx="1570.52" cy="49.2051" r="2.5" fill="white"/>
<circle cx="221.41" cy="462.558" r="2.5" fill="white"/>
<circle cx="618.595" cy="1724.53" r="2.5" fill="white"/>
<circle cx="1917.5" cy="1871.36" r="2.5" fill="white"/>
<circle cx="229.799" cy="668.763" r="2.5" fill="white"/>
<circle cx="1466.49" cy="1608.79" r="2.5" fill="white"/>
<circle cx="1670.38" cy="195.856" r="2.5" fill="white"/>
<circle cx="1251.68" cy="1171.81" r="2.5" fill="white"/>
<circle cx="1089.25" cy="1293.11" r="2.5" fill="white"/>
<circle cx="1887.58" cy="330.74" r="2.5" fill="white"/>
<circle cx="232.219" cy="1577.62" r="2.5" fill="white"/>
<circle cx="1399.89" cy="211.7" r="2.5" fill="white"/>
<circle cx="697.739" cy="499.977" r="2.5" fill="white"/>
<circle cx="1485.01" cy="10.18" r="2.5" fill="white"/>
<circle cx="361.058" cy="634.087" r="2.5" fill="white"/>
<circle cx="1557.95" cy="1881.31" r="2.5" fill="white"/>
<circle cx="1065.86" cy="1310.44" r="2.5" fill="white"/>
<circle cx="428.333" cy="1875.47" r="2.5" fill="white"/>
<circle cx="704.757" cy="1049.56" r="2.5" fill="white"/>
<circle cx="524.869" cy="1595.74" r="2.5" fill="white"/>
<circle cx="1917.5" cy="805.569" r="2.5" fill="white"/>
<circle cx="1404.91" cy="1619.79" r="2.5" fill="white"/>
<circle cx="1247.28" cy="1294.85" r="2.5" fill="white"/>
<circle cx="409.143" cy="88.2629" r="2.5" fill="white"/>
<circle cx="1545.82" cy="111.007" r="2.5" fill="white"/>
<circle cx="1127.34" cy="1868.48" r="2.5" fill="white"/>
<circle cx="792.077" cy="12.6427" r="2.5" fill="white"/>
<circle cx="1459.71" cy="570.207" r="2.5" fill="white"/>
<circle cx="762.859" cy="361.567" r="2.5" fill="white"/>
<circle cx="1635.77" cy="883.225" r="2.5" fill="white"/>
<circle cx="99.7429" cy="590.487" r="2.5" fill="white"/>
<circle cx="862.339" cy="28.6101" r="2.5" fill="white"/>
<circle cx="987.798" cy="1157.1" r="2.5" fill="white"/>
<circle cx="280.856" cy="1637.34" r="2.5" fill="white"/>
<circle cx="358.75" cy="286.844" r="2.5" fill="white"/>
<circle cx="1570.23" cy="1320.93" r="2.5" fill="white"/>
<circle cx="1718.54" cy="347.876" r="2.5" fill="white"/>
<circle cx="562.405" cy="92.8405" r="2.5" fill="white"/>
<circle cx="1252.12" cy="418.715" r="2.5" fill="white"/>
<circle cx="484.979" cy="996.628" r="2.5" fill="white"/>
<circle cx="1297.52" cy="1735.72" r="2.5" fill="white"/>
<circle cx="1617.15" cy="276.382" r="2.5" fill="white"/>
<circle cx="512.982" cy="296.426" r="2.5" fill="white"/>
<circle cx="792.214" cy="1761.06" r="2.5" fill="white"/>
<circle cx="374.655" cy="381.19" r="2.5" fill="white"/>
<circle cx="779.693" cy="699.663" r="2.5" fill="white"/>
<circle cx="1634.61" cy="1825.21" r="2.5" fill="white"/>
<circle cx="632.238" cy="463.206" r="2.5" fill="white"/>
<circle cx="547.716" cy="1574.68" r="2.5" fill="white"/>
<circle cx="1521.47" cy="1753.47" r="2.5" fill="white"/>
<circle cx="332.343" cy="1342.2" r="2.5" fill="white"/>
<circle cx="1241.19" cy="1876.77" r="2.5" fill="white"/>
<circle cx="457.186" cy="1894.93" r="2.5" fill="white"/>
<circle cx="1266.54" cy="1093.97" r="2.5" fill="white"/>
<circle cx="35.3586" cy="446.183" r="2.5" fill="white"/>
<circle cx="1338.6" cy="557.977" r="2.5" fill="white"/>
<circle cx="844.525" cy="1104.96" r="2.5" fill="white"/>
<circle cx="785.311" cy="1413.15" r="2.5" fill="white"/>
<circle cx="1689.7" cy="298.636" r="2.5" fill="white"/>
<circle cx="856.313" cy="959.617" r="2.5" fill="white"/>
<circle cx="1010.26" cy="1015.99" r="2.5" fill="white"/>
<circle cx="1199.42" cy="1518.67" r="2.5" fill="white"/>
<circle cx="1132.69" cy="576.699" r="2.5" fill="white"/>
<circle cx="1873.75" cy="409.844" r="2.5" fill="white"/>
<circle cx="935.323" cy="280.121" r="2.5" fill="white"/>
<circle cx="1218.07" cy="413.155" r="2.5" fill="white"/>
<circle cx="750.433" cy="168.846" r="2.5" fill="white"/>
<circle cx="1269.25" cy="1775.13" r="2.5" fill="white"/>
<circle cx="1213.59" cy="1226.32" r="2.5" fill="white"/>
<circle cx="1175.29" cy="1193.33" r="2.5" fill="white"/>
<circle cx="690.403" cy="1522.62" r="2.5" fill="white"/>
<circle cx="1267.45" cy="1498.07" r="2.5" fill="white"/>
<circle cx="906.167" cy="229.739" r="2.5" fill="white"/>
<circle cx="540.832" cy="1249.58" r="2.5" fill="white"/>
<circle cx="165.089" cy="260.363" r="2.5" fill="white"/>
<circle cx="995.698" cy="773.948" r="2.5" fill="white"/>
<circle cx="204.429" cy="1133.86" r="2.5" fill="white"/>
<circle cx="1261.77" cy="816.84" r="2.5" fill="white"/>
<circle cx="1906.17" cy="1770.55" r="2.5" fill="white"/>
<circle cx="289.453" cy="1372.79" r="2.5" fill="white"/>
<circle cx="267.524" cy="484.12" r="2.5" fill="white"/>
<circle cx="976.074" cy="1849.13" r="2.5" fill="white"/>
<circle cx="1208.17" cy="1358.37" r="2.5" fill="white"/>
<circle cx="934.204" cy="336.417" r="2.5" fill="white"/>
<circle cx="88.7585" cy="1113.91" r="2.5" fill="white"/>
<circle cx="921.405" cy="1868.4" r="2.5" fill="white"/>
<circle cx="1018.79" cy="872.266" r="2.5" fill="white"/>
<circle cx="217.518" cy="1440.76" r="2.5" fill="white"/>
<circle cx="910.816" cy="803.555" r="2.5" fill="white"/>
<circle cx="426.421" cy="1551.85" r="2.5" fill="white"/>
<circle cx="1570.2" cy="1011.77" r="2.5" fill="white"/>
<circle cx="1046.09" cy="10.5959" r="2.5" fill="white"/>
<circle cx="442.526" cy="283.074" r="2.5" fill="white"/>
<circle cx="1246.41" cy="90.2601" r="2.5" fill="white"/>
<circle cx="619.623" cy="1840.84" r="2.5" fill="white"/>
<circle cx="202.981" cy="1227.29" r="2.5" fill="white"/>
<circle cx="1202.91" cy="1612.74" r="2.5" fill="white"/>
<circle cx="1042.69" cy="922.776" r="2.5" fill="white"/>
<circle cx="838.732" cy="1577.15" r="2.5" fill="white"/>
<circle cx="86.6147" cy="59.9167" r="2.5" fill="white"/>
<circle cx="321.607" cy="28.7678" r="2.5" fill="white"/>
<circle cx="1784.3" cy="212.964" r="2.5" fill="white"/>
<circle cx="1432.83" cy="946.947" r="2.5" fill="white"/>
<circle cx="1008.29" cy="1376.36" r="2.5" fill="white"/>
<circle cx="869.559" cy="73.8002" r="2.5" fill="white"/>
<circle cx="1822.26" cy="1868.04" r="2.5" fill="white"/>
<circle cx="100.012" cy="1067.42" r="2.5" fill="white"/>
<circle cx="1203.42" cy="1621.38" r="2.5" fill="white"/>
<circle cx="45.137" cy="1243.66" r="2.5" fill="white"/>
<circle cx="856.217" cy="1453.12" r="2.5" fill="white"/>
<circle cx="1503.42" cy="1034.84" r="2.5" fill="white"/>
<circle cx="420.792" cy="58.8161" r="2.5" fill="white"/>
<circle cx="1674.05" cy="1771.22" r="2.5" fill="white"/>
<circle cx="795.025" cy="1178.87" r="2.5" fill="white"/>
<circle cx="567.547" cy="1708.57" r="2.5" fill="white"/>
<circle cx="680.066" cy="719.112" r="2.5" fill="white"/>
<circle cx="1548.61" cy="807.95" r="2.5" fill="white"/>
<circle cx="1119.39" cy="61.2133" r="2.5" fill="white"/>
<circle cx="1806.23" cy="1069.92" r="2.5" fill="white"/>
<circle cx="1703.48" cy="359.39" r="2.5" fill="white"/>
<circle cx="642.973" cy="565.884" r="2.5" fill="white"/>
<circle cx="1518.83" cy="530.105" r="2.5" fill="white"/>
<circle cx="1702.67" cy="444.499" r="2.5" fill="white"/>
<circle cx="1269.43" cy="904.134" r="2.5" fill="white"/>
<circle cx="993.833" cy="845.691" r="2.5" fill="white"/>
<circle cx="355.637" cy="998.968" r="2.5" fill="white"/>
<circle cx="142.612" cy="713.901" r="2.5" fill="white"/>
<circle cx="756.139" cy="1574.45" r="2.5" fill="white"/>
<circle cx="583.76" cy="525.382" r="2.5" fill="white"/>
<circle cx="351.926" cy="323.098" r="2.5" fill="white"/>
<circle cx="1609.47" cy="581.19" r="2.5" fill="white"/>
<circle cx="1733.44" cy="764.96" r="2.5" fill="white"/>
<circle cx="1815.2" cy="1781.91" r="2.5" fill="white"/>
<circle cx="1408.62" cy="541.701" r="2.5" fill="white"/>
<circle cx="1256.63" cy="702.384" r="2.5" fill="white"/>
<circle cx="651.289" cy="1355.57" r="2.5" fill="white"/>
<circle cx="1142.78" cy="512.753" r="2.5" fill="white"/>
<circle cx="730.974" cy="1033.64" r="2.5" fill="white"/>
<circle cx="1192.03" cy="1698.59" r="2.5" fill="white"/>
<circle cx="1874.31" cy="993.447" r="2.5" fill="white"/>
<circle cx="1651.74" cy="1709.57" r="2.5" fill="white"/>
<circle cx="515.16" cy="921.925" r="2.5" fill="white"/>
<circle cx="1419.7" cy="1214.66" r="2.5" fill="white"/>
<circle cx="1197.58" cy="208.276" r="2.5" fill="white"/>
<circle cx="887.719" cy="343.555" r="2.5" fill="white"/>
<circle cx="1461.61" cy="327.369" r="2.5" fill="white"/>
<circle cx="1440.69" cy="1847.95" r="2.5" fill="white"/>
<circle cx="1463.29" cy="509.15" r="2.5" fill="white"/>
<circle cx="1448.6" cy="1780.45" r="2.5" fill="white"/>
<circle cx="225.131" cy="1010.57" r="2.5" fill="white"/>
<circle cx="41.9331" cy="279.345" r="2.5" fill="white"/>
<circle cx="1388.52" cy="6.8374" r="2.5" fill="white"/>
<circle cx="1899.31" cy="862.944" r="2.5" fill="white"/>
<circle cx="576.451" cy="572.308" r="2.5" fill="white"/>
<circle cx="1605.48" cy="1355" r="2.5" fill="white"/>
<circle cx="1401.78" cy="1909.9" r="2.5" fill="white"/>
<circle cx="545.998" cy="791.044" r="2.5" fill="white"/>
<circle cx="1892.86" cy="1439.52" r="2.5" fill="white"/>
<circle cx="1367.97" cy="111.694" r="2.5" fill="white"/>
<circle cx="46.6042" cy="1741.57" r="2.5" fill="white"/>
<circle cx="1723.57" cy="260.051" r="2.5" fill="white"/>
<circle cx="1514.49" cy="649.739" r="2.5" fill="white"/>
<circle cx="490.712" cy="1110.39" r="2.5" fill="white"/>
<circle cx="758.821" cy="1720.85" r="2.5" fill="white"/>
<circle cx="1610.89" cy="1304.63" r="2.5" fill="white"/>
<circle cx="1745.6" cy="1131.38" r="2.5" fill="white"/>
<circle cx="676.443" cy="976.554" r="2.5" fill="white"/>
<circle cx="1445.05" cy="618.063" r="2.5" fill="white"/>
<circle cx="1848.15" cy="534.537" r="2.5" fill="white"/>
<circle cx="1887.86" cy="221.068" r="2.5" fill="white"/>
<circle cx="1624.46" cy="245.32" r="2.5" fill="white"/>
<circle cx="1617.88" cy="315.799" r="2.5" fill="white"/>
<circle cx="864.981" cy="240.128" r="2.5" fill="white"/>
<circle cx="692.021" cy="982.976" r="2.5" fill="white"/>
<circle cx="708.393" cy="709.178" r="2.5" fill="white"/>
<circle cx="859.5" cy="422.071" r="2.5" fill="white"/>
<circle cx="417.928" cy="1397.94" r="2.5" fill="white"/>
<circle cx="1236.81" cy="872.967" r="2.5" fill="white"/>
<circle cx="702.463" cy="752.258" r="2.5" fill="white"/>
<circle cx="1717.61" cy="1233.2" r="2.5" fill="white"/>
<circle cx="413.846" cy="558.706" r="2.5" fill="white"/>
<circle cx="1898.19" cy="1348.89" r="2.5" fill="white"/>
<circle cx="226.168" cy="1040.67" r="2.5" fill="white"/>
<circle cx="636.337" cy="1141.6" r="2.5" fill="white"/>
<circle cx="1794.84" cy="1221.84" r="2.5" fill="white"/>
<circle cx="641.722" cy="1848.12" r="2.5" fill="white"/>
<circle cx="1461.58" cy="12.0097" r="2.5" fill="white"/>
<circle cx="1020.91" cy="161.894" r="2.5" fill="white"/>
<circle cx="1129.08" cy="1361.09" r="2.5" fill="white"/>
<circle cx="88.521" cy="394.584" r="2.5" fill="white"/>
<circle cx="1427.06" cy="1762.33" r="2.5" fill="white"/>
<circle cx="362.764" cy="1425.93" r="2.5" fill="white"/>
<circle cx="951.833" cy="1500.52" r="2.5" fill="white"/>
<circle cx="1504.51" cy="303.038" r="2.5" fill="white"/>
<circle cx="1182.58" cy="1630.72" r="2.5" fill="white"/>
<circle cx="873.807" cy="143.732" r="2.5" fill="white"/>
<circle cx="1733.53" cy="1293.04" r="2.5" fill="white"/>
<circle cx="1297.02" cy="1293.75" r="2.5" fill="white"/>
<circle cx="640.89" cy="667.364" r="2.5" fill="white"/>
<circle cx="1564.23" cy="1861.65" r="2.5" fill="white"/>
<circle cx="1810.47" cy="167.46" r="2.5" fill="white"/>
<circle cx="602.247" cy="374.258" r="2.5" fill="white"/>
<circle cx="1858.99" cy="1329.77" r="2.5" fill="white"/>
<circle cx="683.455" cy="759.296" r="2.5" fill="white"/>
<circle cx="1588.35" cy="746.613" r="2.5" fill="white"/>
<circle cx="1470.68" cy="456.257" r="2.5" fill="white"/>
<circle cx="1502.17" cy="1908.84" r="2.5" fill="white"/>
<circle cx="1224.55" cy="1340.71" r="2.5" fill="white"/>
<circle cx="1737.27" cy="1136.66" r="2.5" fill="white"/>
<circle cx="1634.64" cy="534.117" r="2.5" fill="white"/>
<circle cx="829" cy="703.182" r="2.5" fill="white"/>
<circle cx="425.477" cy="912.961" r="2.5" fill="white"/>
<circle cx="1504.05" cy="1419" r="2.5" fill="white"/>
<circle cx="1824.61" cy="1171.73" r="2.5" fill="white"/>
<circle cx="846.535" cy="1648.91" r="2.5" fill="white"/>
<circle cx="1866.07" cy="497.539" r="2.5" fill="white"/>
<circle cx="1867.73" cy="259.834" r="2.5" fill="white"/>
<circle cx="208.196" cy="759.962" r="2.5" fill="white"/>
<circle cx="1420.18" cy="1696.66" r="2.5" fill="white"/>
<circle cx="73.1284" cy="904.735" r="2.5" fill="white"/>
<circle cx="532.87" cy="427.405" r="2.5" fill="white"/>
<circle cx="985.95" cy="613.805" r="2.5" fill="white"/>
<circle cx="819.053" cy="1179.56" r="2.5" fill="white"/>
<circle cx="138.634" cy="1425.91" r="2.5" fill="white"/>
<circle cx="40.877" cy="1619.22" r="2.5" fill="white"/>
<circle cx="766.85" cy="1160.04" r="2.5" fill="white"/>
<circle cx="1260.9" cy="264.248" r="2.5" fill="white"/>
<circle cx="177.345" cy="1624.62" r="2.5" fill="white"/>
<circle cx="1614.1" cy="1275.66" r="2.5" fill="white"/>
<circle cx="1623.28" cy="949.536" r="2.5" fill="white"/>
<circle cx="709.198" cy="1478.57" r="2.5" fill="white"/>
<circle cx="1794.91" cy="500.255" r="2.5" fill="white"/>
<circle cx="968.765" cy="1503.06" r="2.5" fill="white"/>
<circle cx="1247.23" cy="943.363" r="2.5" fill="white"/>
<circle cx="1002.63" cy="1753.54" r="2.5" fill="white"/>
<circle cx="674.721" cy="1122.84" r="2.5" fill="white"/>
<circle cx="1416.14" cy="1244.34" r="2.5" fill="white"/>
<circle cx="52.2393" cy="1467.91" r="2.5" fill="white"/>
</svg>
