<svg width="100" height="100" viewBox="0 0 100 100" fill="none" xmlns="http://www.w3.org/2000/svg">
<rect width="100" height="100" rx="15" fill="#171717"/>
<g clip-path="url(#clip0_29_170)">
<path d="M54.9219 15C35.625 15 20 30.6719 20 50C20 69.3281 35.625 85 54.9219 85C64.3906 85 72.9687 81.2188 79.2656 75.0938C80.0469 74.3281 80.25 73.1406 79.75 72.1719C79.25 71.2031 78.1719 70.6562 77.0937 70.8437C75.5625 71.1094 74 71.25 72.3906 71.25C57.25 71.25 44.9688 58.9375 44.9688 43.75C44.9688 33.4687 50.5938 24.5156 58.9219 19.7969C59.875 19.25 60.3594 18.1563 60.125 17.0938C59.8906 16.0313 58.9844 15.2344 57.8906 15.1406C56.9062 15.0625 55.9219 15.0156 54.9219 15.0156V15Z" fill="#E7E5E4"/>
</g>
<defs>
<clipPath id="clip0_29_170">
<rect width="60" height="80" fill="white" transform="translate(20 10)"/>
</clipPath>
</defs>
</svg>
