<svg width="100" height="100" viewBox="0 0 100 100" fill="none" xmlns="http://www.w3.org/2000/svg">
<rect width="100" height="100" rx="15" fill="#E7E5E4"/>
<g clip-path="url(#clip0_29_178)">
<path d="M66.4844 10.1875C67.2657 10.5156 67.8282 11.2188 67.9844 12.0469L71.0938 28.9063L87.9532 32C88.7813 32.1562 89.4844 32.7187 89.8125 33.5C90.1407 34.2812 90.0469 35.1719 89.5625 35.875L79.8282 50L89.5625 64.1094C90.0469 64.8125 90.1407 65.7031 89.8125 66.4844C89.4844 67.2656 88.7813 67.8281 87.9532 67.9844L71.0938 71.0937L67.9844 87.9531C67.8282 88.7812 67.2657 89.4844 66.4844 89.8125C65.7032 90.1406 64.8125 90.0469 64.1094 89.5625L50 79.8281L35.8907 89.5625C35.1875 90.0469 34.2969 90.1406 33.5157 89.8125C32.7344 89.4844 32.1719 88.7812 32.0157 87.9531L28.9063 71.0937L12.0469 67.9844C11.2188 67.8281 10.5157 67.2656 10.1875 66.4844C9.85942 65.7031 9.95317 64.8125 10.4375 64.1094L20.1719 50L10.4375 35.8906C9.95317 35.1875 9.85942 34.2969 10.1875 33.5156C10.5157 32.7344 11.2188 32.1719 12.0469 32.0156L28.9063 28.9063L32.0157 12.0469C32.1719 11.2188 32.7344 10.5156 33.5157 10.1875C34.2969 9.85938 35.1875 9.95313 35.8907 10.4375L50 20.1719L64.1094 10.4375C64.8125 9.95313 65.7032 9.85938 66.4844 10.1875ZM35 50C35 46.0218 36.5804 42.2064 39.3934 39.3934C42.2065 36.5804 46.0218 35 50 35C53.9783 35 57.7936 36.5804 60.6067 39.3934C63.4197 42.2064 65 46.0218 65 50C65 53.9782 63.4197 57.7936 60.6067 60.6066C57.7936 63.4196 53.9783 65 50 65C46.0218 65 42.2065 63.4196 39.3934 60.6066C36.5804 57.7936 35 53.9782 35 50ZM70 50C70 44.6957 67.8929 39.6086 64.1422 35.8579C60.3915 32.1071 55.3044 30 50 30C44.6957 30 39.6086 32.1071 35.8579 35.8579C32.1072 39.6086 30 44.6957 30 50C30 55.3043 32.1072 60.3914 35.8579 64.1421C39.6086 67.8929 44.6957 70 50 70C55.3044 70 60.3915 67.8929 64.1422 64.1421C67.8929 60.3914 70 55.3043 70 50Z" fill="#171717"/>
</g>
<defs>
<clipPath id="clip0_29_178">
<rect width="80" height="80" fill="white" transform="translate(10 10)"/>
</clipPath>
</defs>
</svg>
