<svg width="100" height="100" viewBox="0 0 100 100" fill="none" xmlns="http://www.w3.org/2000/svg">
<rect width="100" height="100" rx="15" fill="#171717"/>
<path d="M50 25C43.3696 25 37.0107 27.6339 32.3223 32.3223C27.6339 37.0107 25 43.3696 25 50C25 56.6304 27.6339 62.9893 32.3223 67.6777C37.0107 72.3661 43.3696 75 50 75C56.6304 75 62.9893 72.3661 67.6777 67.6777C72.3661 62.9893 75 56.6304 75 50C75 43.3696 72.3661 37.0107 67.6777 32.3223C62.9893 27.6339 56.6304 25 50 25ZM85 50C85 59.2826 81.3125 68.185 74.7487 74.7487C68.185 81.3125 59.2826 85 50 85C40.7174 85 31.815 81.3125 25.2513 74.7487C18.6875 68.185 15 59.2826 15 50C15 40.7174 18.6875 31.815 25.2513 25.2513C31.815 18.6875 40.7174 15 50 15C59.2826 15 68.185 18.6875 74.7487 25.2513C81.3125 31.815 85 40.7174 85 50Z" fill="#E7E5E4"/>
<path d="M64.1188 40.1188C65.2906 38.9469 65.2906 37.0438 64.1188 35.8719C62.9469 34.7 61.0438 34.7 59.8719 35.8719L50 45.7531L40.1188 35.8813C38.9469 34.7094 37.0438 34.7094 35.8719 35.8813C34.7 37.0531 34.7 38.9563 35.8719 40.1281L45.7531 50L35.8813 59.8812C34.7094 61.0531 34.7094 62.9563 35.8813 64.1281C37.0531 65.3 38.9563 65.3 40.1281 64.1281L50 54.2469L59.8813 64.1187C61.0531 65.2906 62.9563 65.2906 64.1281 64.1187C65.3 62.9469 65.3 61.0438 64.1281 59.8719L54.2469 50L64.1188 40.1188Z" fill="#E7E5E4"/>
</svg>
