<svg width="100" height="100" viewBox="0 0 100 100" fill="none" xmlns="http://www.w3.org/2000/svg">
<rect width="100" height="100" rx="15" fill="#E7E5E4"/>
<path d="M55.1 35.1C54.9667 36.3667 54.8667 37.6 54.8 38.8C54.7667 39.9667 54.75 40.8667 54.75 41.5C54.75 42.3 54.7667 43.05 54.8 43.75C54.8333 44.45 54.8667 45.0667 54.9 45.6H53.75C53.5167 43.2667 53.2 41.4333 52.8 40.1C52.4 38.7333 51.7 37.75 50.7 37.15C49.7 36.55 48.15 36.25 46.05 36.25H43.35V64.7C43.35 66.0333 43.4667 67.0333 43.7 67.7C43.9667 68.3667 44.4667 68.8167 45.2 69.05C45.9333 69.2833 47 69.4333 48.4 69.5V70.5C47.5333 70.4333 46.4333 70.4 45.1 70.4C43.7667 70.3667 42.4167 70.35 41.05 70.35C39.55 70.35 38.1333 70.3667 36.8 70.4C35.5 70.4 34.45 70.4333 33.65 70.5V69.5C35.05 69.4333 36.1167 69.2833 36.85 69.05C37.5833 68.8167 38.0667 68.3667 38.3 67.7C38.5667 67.0333 38.7 66.0333 38.7 64.7V36.25H36C33.9333 36.25 32.3833 36.55 31.35 37.15C30.35 37.75 29.65 38.7333 29.25 40.1C28.85 41.4333 28.5333 43.2667 28.3 45.6H27.15C27.2167 45.0667 27.25 44.45 27.25 43.75C27.2833 43.05 27.3 42.3 27.3 41.5C27.3 40.8667 27.2667 39.9667 27.2 38.8C27.1667 37.6 27.0833 36.3667 26.95 35.1C28.35 35.1333 29.8667 35.1667 31.5 35.2C33.1667 35.2333 34.8333 35.25 36.5 35.25C38.1667 35.25 39.6833 35.25 41.05 35.25C42.4167 35.25 43.9167 35.25 45.55 35.25C47.2167 35.25 48.8833 35.2333 50.55 35.2C52.2167 35.1667 53.7333 35.1333 55.1 35.1ZM66.0547 36.45V44.8H73.4547V45.8H66.0547V65.15C66.0547 66.7167 66.338 67.8167 66.9047 68.45C67.4714 69.0833 68.2547 69.4 69.2547 69.4C70.2547 69.4 71.1214 69 71.8547 68.2C72.588 67.3667 73.2214 65.9833 73.7547 64.05L74.7547 64.3C74.4214 66.2333 73.7547 67.8667 72.7547 69.2C71.788 70.5333 70.288 71.2 68.2547 71.2C67.1214 71.2 66.188 71.05 65.4547 70.75C64.7214 70.4833 64.0714 70.0833 63.5047 69.55C62.7714 68.7833 62.2547 67.8667 61.9547 66.8C61.688 65.7333 61.5547 64.3167 61.5547 62.55V45.8H56.7547V44.8H61.5547V37.15C62.388 37.1167 63.188 37.05 63.9547 36.95C64.7214 36.85 65.4214 36.6833 66.0547 36.45Z" fill="#171717"/>
</svg>
