<svg width="100" height="100" viewBox="0 0 100 100" fill="none" xmlns="http://www.w3.org/2000/svg">
<rect width="100" height="100" rx="15" fill="#171717"/>
<path d="M20 15C14.4844 15 10 19.4844 10 25V75C10 80.5156 14.4844 85 20 85H80C85.5156 85 90 80.5156 90 75V25C90 19.4844 85.5156 15 80 15H20ZM33.75 25V35H20V25H33.75ZM42.5 25H56.25V35H42.5V25ZM80 25V35H66.25V25H80ZM20 45H33.75V55H20V45ZM56.25 45V55H42.5V45H56.25ZM66.25 45H80V55H66.25V45ZM33.75 65V75H20V65H33.75ZM42.5 65H56.25V75H42.5V65ZM80 65V75H66.25V65H80Z" fill="#E7E5E4"/>
</svg>
