<svg width="100" height="100" viewBox="0 0 100 100" fill="none" xmlns="http://www.w3.org/2000/svg">
<rect width="100" height="100" rx="15" fill="#171717"/>
<path d="M60.35 35.1V36.1C59.7167 36.2333 59.0167 36.6167 58.25 37.25C57.4833 37.85 56.8667 38.9167 56.4 40.45L46.95 70.75C46.8833 70.75 46.8167 70.75 46.75 70.75C46.6833 70.75 46.6167 70.75 46.55 70.75C46.4833 70.75 46.4167 70.75 46.35 70.75C46.2833 70.75 46.2167 70.75 46.15 70.75L35.55 39.3C35.1167 38 34.6333 37.15 34.1 36.75C33.5667 36.35 33.0667 36.1333 32.6 36.1V35.1C33.2 35.1333 33.95 35.1667 34.85 35.2C35.75 35.2333 36.6167 35.25 37.45 35.25C38.75 35.25 39.9667 35.2333 41.1 35.2C42.2333 35.1667 43.15 35.1333 43.85 35.1V36.1C42.85 36.1333 42.05 36.2333 41.45 36.4C40.8833 36.5667 40.55 36.9333 40.45 37.5C40.3833 38.0667 40.55 39 40.95 40.3L48.4 63.35L47.7 63.95L54.3 43.2C54.9 41.3667 55.1667 39.95 55.1 38.95C55.0667 37.9167 54.7 37.2 54 36.8C53.3 36.3667 52.25 36.1333 50.85 36.1V35.1C51.8167 35.1333 52.8 35.1667 53.8 35.2C54.8 35.2333 55.7333 35.25 56.6 35.25C57.4667 35.25 58.1833 35.2333 58.75 35.2C59.3167 35.1667 59.85 35.1333 60.35 35.1ZM25.4 35.1V36.1C24.5333 36.1667 23.9 36.3333 23.5 36.6C23.1333 36.8667 22.95 37.3 22.95 37.9C22.9833 38.4667 23.1667 39.2667 23.5 40.3L31.25 63.95L30 65.2L37 42.85L37.75 44.05L29.5 70.75C29.4333 70.75 29.3667 70.75 29.3 70.75C29.2333 70.75 29.1667 70.75 29.1 70.75C29.0333 70.75 28.9667 70.75 28.9 70.75C28.8333 70.75 28.7667 70.75 28.7 70.75L18.1 39.3C17.6667 38 17.1167 37.15 16.45 36.75C15.7833 36.35 15.1833 36.1333 14.65 36.1V35.1C15.3167 35.1333 16.1333 35.1667 17.1 35.2C18.1 35.2333 19.0667 35.25 20 35.25C21.1 35.25 22.1167 35.2333 23.05 35.2C24.0167 35.1667 24.8 35.1333 25.4 35.1ZM70.4969 44.05C72.6302 44.05 74.5469 44.5167 76.2469 45.45C77.9469 46.3833 79.2969 47.85 80.2969 49.85C81.3302 51.85 81.8469 54.45 81.8469 57.65C81.8469 60.85 81.3302 63.45 80.2969 65.45C79.2969 67.4167 77.9469 68.8667 76.2469 69.8C74.5469 70.7333 72.6302 71.2 70.4969 71.2C68.3969 71.2 66.4802 70.7333 64.7469 69.8C63.0469 68.8667 61.6802 67.4167 60.6469 65.45C59.6469 63.45 59.1469 60.85 59.1469 57.65C59.1469 54.45 59.6469 51.85 60.6469 49.85C61.6802 47.85 63.0469 46.3833 64.7469 45.45C66.4802 44.5167 68.3969 44.05 70.4969 44.05ZM70.4969 45.05C68.5969 45.05 67.0302 46.0333 65.7969 48C64.5969 49.9667 63.9969 53.1833 63.9969 57.65C63.9969 62.1167 64.5969 65.3333 65.7969 67.3C67.0302 69.2333 68.5969 70.2 70.4969 70.2C72.3969 70.2 73.9469 69.2333 75.1469 67.3C76.3802 65.3333 76.9969 62.1167 76.9969 57.65C76.9969 53.1833 76.3802 49.9667 75.1469 48C73.9469 46.0333 72.3969 45.05 70.4969 45.05Z" fill="#E7E5E4"/>
</svg>
