<svg width="100" height="100" viewBox="0 0 100 100" fill="none" xmlns="http://www.w3.org/2000/svg">
<rect width="100" height="100" rx="15" fill="#E7E5E4"/>
<path d="M62.9 35.1V36.1C62.1333 36.4667 61.3333 37.1833 60.5 38.25C59.6667 39.3167 58.9167 40.9333 58.25 43.1L49.85 70.5C49.45 70.4667 49.0167 70.45 48.55 70.45C48.1167 70.4167 47.6667 70.4 47.2 70.4C46.7667 70.4 46.3167 70.4167 45.85 70.45C45.4167 70.45 45 70.4667 44.6 70.5L34.1 38.45C33.8333 37.5833 33.4833 36.9833 33.05 36.65C32.6167 36.3167 32.1167 36.1333 31.55 36.1V35.1C32.6833 35.1333 34.0167 35.1667 35.55 35.2C37.0833 35.2333 38.6333 35.25 40.2 35.25C41.7667 35.25 43.2333 35.2333 44.6 35.2C46 35.1667 47.1167 35.1333 47.95 35.1V36.1C46.9167 36.1333 46.1167 36.2667 45.55 36.5C44.9833 36.7 44.65 37.1 44.55 37.7C44.4833 38.2667 44.65 39.1333 45.05 40.3L51.9 61.1L50.45 64.15L55.5 48C56.4333 45.0333 56.8833 42.7 56.85 41C56.8167 39.2667 56.4167 38.0333 55.65 37.3C54.8833 36.5333 53.8333 36.1333 52.5 36.1V35.1C53.7667 35.1333 54.8833 35.1667 55.85 35.2C56.85 35.2333 57.9167 35.25 59.05 35.25C59.7167 35.25 60.4 35.2333 61.1 35.2C61.8 35.1667 62.4 35.1333 62.9 35.1ZM26.75 35.1V36.1C26.1833 36.2 25.8 36.5 25.6 37C25.4333 37.4667 25.3833 38.0167 25.45 38.65C25.55 39.25 25.6833 39.8 25.85 40.3L33.4 61.55L32 63.7L38 47.45L38.7 48.9L31.05 70.5C30.65 70.4667 30.2167 70.45 29.75 70.45C29.3167 70.4167 28.8667 70.4 28.4 70.4C27.9667 70.4 27.5167 70.4167 27.05 70.45C26.6167 70.45 26.2 70.4667 25.8 70.5L14.2 39.3C13.7667 38.1333 13.2833 37.3167 12.75 36.85C12.2167 36.3833 11.7167 36.1333 11.25 36.1V35.1C12.45 35.1333 13.85 35.1667 15.45 35.2C17.0833 35.2333 18.6333 35.25 20.1 35.25C21.5667 35.25 22.8667 35.2333 24 35.2C25.1333 35.1667 26.05 35.1333 26.75 35.1ZM73.3727 43.85C75.9727 43.85 78.2227 44.3 80.1227 45.2C82.056 46.0667 83.556 47.5 84.6227 49.5C85.6893 51.5 86.2227 54.1833 86.2227 57.55C86.2227 60.9167 85.6893 63.6 84.6227 65.6C83.556 67.6 82.056 69.0333 80.1227 69.9C78.2227 70.7667 75.9727 71.2 73.3727 71.2C70.806 71.2 68.556 70.7667 66.6227 69.9C64.6893 69.0333 63.1893 67.6 62.1227 65.6C61.056 63.6 60.5227 60.9167 60.5227 57.55C60.5227 54.1833 61.056 51.5 62.1227 49.5C63.1893 47.5 64.6893 46.0667 66.6227 45.2C68.556 44.3 70.806 43.85 73.3727 43.85ZM73.3727 44.85C72.3727 44.85 71.5393 45.85 70.8727 47.85C70.206 49.85 69.8727 53.0833 69.8727 57.55C69.8727 62.0167 70.206 65.25 70.8727 67.25C71.5393 69.2167 72.3727 70.2 73.3727 70.2C74.3727 70.2 75.206 69.2167 75.8727 67.25C76.5393 65.25 76.8727 62.0167 76.8727 57.55C76.8727 53.0833 76.5393 49.85 75.8727 47.85C75.206 45.85 74.3727 44.85 73.3727 44.85Z" fill="#171717"/>
</svg>
